<?xml version="1.0" encoding="UTF-8"?>
<svg width="260" height="260" version="1.1" viewBox="0 0 260 260" xml:space="preserve" xmlns="http://www.w3.org/2000/svg"><g fill="#aaa"><path d="m193.8 122.49c-.465-3.052-3.197-5.5808-6.772-5.5808-4.622 0-7.557 3.488-7.557 8.1386 0 4.7088 2.848 8.1677 7.353 8.1677 3.459 0 6.511-2.2963 7.122-5.5808h-3.052c-.407 1.8603-2.093 2.9939-4.012 2.9939-2.15 0-4.185-1.744-4.185-5.6098 0-3.8077 2.005-5.5226 4.185-5.5226 1.977 0 3.576 1.2207 3.895 2.9938zm5.424-3.0229v-7.7026h-3.023v21.073h3.023v-8.4002c0-3.1101 1.279-4.9994 3.895-4.9994 2.848 0 3.226 2.0928 3.226 4.36v9.0396h3.023v-9.8535c0-3.6333-1.453-6.0749-5.232-6.0749-2.442 0-4.011 1.0174-4.912 2.5579zm24.038 8.778c-.64 1.4824-1.918 2.3835-4.098 2.3835-2.442 0-4.273-1.8022-4.564-4.6797h11.917c.32-5.0866-2.499-9.0397-7.324-9.0397-4.448 0-7.703 3.2264-7.703 8.0805 0 4.5343 2.732 8.2258 7.79 8.2258 3.982 0 6.307-2.3835 7.034-4.9704zm-8.604-4.6797c.407-2.9647 2.151-4.1855 4.506-4.1855 2.499 0 4.127 1.8602 4.214 4.1855zm28.37-1.0754c-.465-3.052-3.197-5.5808-6.773-5.5808-4.621 0-7.557 3.488-7.557 8.1386 0 4.7088 2.849 8.1677 7.354 8.1677 3.459 0 6.511-2.2963 7.121-5.5808h-3.052c-.407 1.8603-2.092 2.9939-4.011 2.9939-2.151 0-4.185-1.744-4.185-5.6098 0-3.8077 2.005-5.5226 4.185-5.5226 1.977 0 3.575 1.2207 3.895 2.9938zm5.424-10.725h-3.023v21.073h3.023v-5.1157l1.773-1.8893 4.97 7.005h3.604l-6.511-9.185 6.075-6.4527h-3.691l-6.22 6.6853z"/><path d="m56.234 142.14v-1.347h-1.5133v8.9471h1.5133v-4.856c0-1.9125.8981-2.927 2.3615-2.927 1.7296 0 1.9624 1.1974 1.9624 2.5777v5.2053h1.5134v-5.6543c0-2.0455-.7816-3.4425-2.9436-3.4425-1.5134 0-2.3781.6486-2.8937 1.4967zm15.768 3.1598c0-3.2429-2.2119-4.6565-4.2907-4.6565s-4.2906 1.4136-4.2906 4.6565c0 3.243 2.2118 4.6565 4.2906 4.6565s4.2907-1.4135 4.2907-4.6565zm-4.2907 3.3261c-1.3637 0-2.6775-.9479-2.6775-3.3261 0-2.4447 1.3138-3.3261 2.6775-3.3261s2.6775.948 2.6775 3.3261c0 2.295-1.3138 3.3261-2.6775 3.3261zm6.3669-10.078v2.2451h-1.4136v1.214h1.4136v5.488c0 1.8626.3991 2.2451 2.112 2.2451h1.0976v-1.2639h-.765c-.8647 0-.9313-.2328-.9313-1.1641v-5.3051h1.6963v-1.214h-1.6963v-2.2451zm6.6515-.8648h-1.5134v1.8293h1.5134zm0 3.1099h-1.5134v8.9471h1.5134zm1.752 7.6333v1.3138h7.0347v-1.3138h-5.2552l5.1554-6.3195v-1.3138h-6.6023v1.3138h4.8395zm9.9497-10.743h-1.5133v1.8293h1.5133zm0 3.1099h-1.5133v8.9471h1.5133zm3.0825 4.9725h6.885c.1996-2.8272-1.4468-5.1222-4.1742-5.1222-2.4447 0-4.3406 1.8127-4.3406 4.6399 0 2.6442 1.5633 4.6731 4.3905 4.6731 2.1785 0 3.5921-1.2639 4.0079-2.8105h-1.5633c-.3825.8814-1.1142 1.4801-2.4446 1.4801-1.3305 0-2.6942-.9313-2.7607-2.8604zm.0166-1.2972c.1331-1.7961 1.3471-2.5278 2.6942-2.5278 1.5965 0 2.5444 1.2639 2.5777 2.5278zm18.715-6.7852v4.5235c-.549-.948-1.497-1.5633-2.927-1.5633-2.046 0-3.825 1.7129-3.825 4.6565 0 2.9602 1.779 4.6565 3.825 4.6565 1.43 0 2.378-.6153 2.927-1.5632v1.347h1.513v-12.057zm-2.545 4.2574c1.348 0 2.611.9978 2.611 3.3593s-1.263 3.3594-2.611 3.3594c-1.546 0-2.5606-1.2307-2.5606-3.3594s1.0146-3.3593 2.5606-3.3593zm6.329-4.2574v1.9125h.815l-.882 2.3116h.965l1.014-2.1786v-2.0455zm10.362 7.6167c0-3.2429-2.211-4.6565-4.29-4.6565s-4.291 1.4136-4.291 4.6565c0 3.243 2.212 4.6565 4.291 4.6565s4.29-1.4135 4.29-4.6565zm-4.29 3.3261c-1.364 0-2.678-.9479-2.678-3.3261 0-2.4447 1.314-3.3261 2.678-3.3261 1.363 0 2.677.948 2.677 3.3261 0 2.295-1.314 3.3261-2.677 3.3261zm9.892-6.253v-1.6132c-.166-.0166-.299-.0166-.449-.0166-1.164.0332-2.079.5987-2.528 1.6131v-1.5632h-1.48v8.9471h1.514v-4.6897c0-1.9624.698-2.7441 2.095-2.7441.25 0 .532.0333.848.0666zm3.135-4.6898h-1.514v1.8293h1.514zm0 3.1099h-1.514v8.9471h1.514zm8.42 0v1.4136c-.548-.948-1.413-1.5633-2.843-1.5633-1.979 0-3.792 1.6131-3.792 4.4736 0 2.8771 1.813 4.4736 3.792 4.4736 1.43 0 2.295-.5987 2.843-1.5467v.8482c0 1.214-.249 1.6298-.582 1.979-.399.4324-1.014.6652-1.829.6652-1.397 0-1.879-.6153-2.079-1.4136h-1.613c.283 1.8128 1.646 2.7441 3.675 2.7441 1.331 0 2.445-.4324 3.094-1.1808.515-.5654.848-1.3138.848-3.1431v-7.7498zm-2.461 1.1475c1.347 0 2.528.9146 2.528 3.1764 0 2.2784-1.181 3.193-2.528 3.193-1.48 0-2.528-1.1475-2.528-3.193 0-2.0289 1.048-3.1764 2.528-3.1764zm7.545-4.2574h-1.513v1.8293h1.513zm0 3.1099h-1.513v8.9471h1.513zm3.748 1.347v-1.347h-1.514v8.9471h1.514v-4.856c0-1.9125.898-2.927 2.361-2.927 1.73 0 1.963 1.1974 1.963 2.5777v5.2053h1.513v-5.6543c0-2.0455-.782-3.4425-2.944-3.4425-1.513 0-2.378.6486-2.893 1.4967zm8.949 3.6255h6.885c.199-2.8272-1.447-5.1222-4.174-5.1222-2.445 0-4.341 1.8127-4.341 4.6399 0 2.6442 1.563 4.6731 4.391 4.6731 2.178 0 3.592-1.2639 4.008-2.8105h-1.564c-.382.8814-1.114 1.4801-2.444 1.4801-1.331 0-2.695-.9313-2.761-2.8604zm.017-1.2972c.133-1.7961 1.347-2.5278 2.694-2.5278 1.596 0 2.544 1.2639 2.577 2.5278zm20.029-.6819c-.2-1.5133-1.58-3.1431-3.742-3.1431-2.644 0-4.324 1.979-4.324 4.6399 0 2.7274 1.613 4.6731 4.174 4.6731 2.079 0 3.692-1.4468 3.991-3.1265h-1.563c-.216.948-1.114 1.7961-2.378 1.7961-1.33 0-2.578-1.081-2.578-3.3593 0-2.2452 1.231-3.2929 2.578-3.2929 1.164 0 2.095.7484 2.312 1.8127zm2.821 1.9791h6.885c.199-2.8272-1.447-5.1222-4.174-5.1222-2.445 0-4.341 1.8127-4.341 4.6399 0 2.6442 1.563 4.6731 4.39 4.6731 2.179 0 3.593-1.2639 4.008-2.8105h-1.563c-.382.8814-1.114 1.4801-2.445 1.4801-1.33 0-2.694-.9313-2.76-2.8604zm.016-1.2972c.133-1.7961 1.347-2.5278 2.695-2.5278 1.596 0 2.544 1.2639 2.577 2.5278zm12.923-2.0954v-1.6132c-.166-.0166-.299-.0166-.449-.0166-1.164.0332-2.079.5987-2.528 1.6131v-1.5632h-1.48v8.9471h1.514v-4.6897c0-1.9624.698-2.7441 2.095-2.7441.249 0 .532.0333.848.0666zm2.22-3.825v2.2451h-1.414v1.214h1.414v5.488c0 1.8626.399 2.2451 2.112 2.2451h1.098v-1.2639h-.765c-.865 0-.932-.2328-.932-1.1641v-5.3051h1.697v-1.214h-1.697v-2.2451zm6.323-.8648h-1.514v1.8293h1.514zm0 3.1099h-1.514v8.9471h1.514zm2.783-.6486v.6486h-1.248v1.214h1.248v7.7331h1.513v-7.7331h1.68v-1.214h-1.68v-.7318c0-.9313.133-1.1142.931-1.1142h.749v-1.2639h-.782c-2.029 0-2.411.5987-2.411 2.4613zm6.344-2.4613h-1.513v1.8293h1.513zm0 3.1099h-1.513v8.9471h1.513zm9.685 2.9934c-.2-1.5133-1.58-3.1431-3.742-3.1431-2.644 0-4.324 1.979-4.324 4.6399 0 2.7274 1.613 4.6731 4.174 4.6731 2.079 0 3.692-1.4468 3.991-3.1265h-1.563c-.216.948-1.114 1.7961-2.378 1.7961-1.33 0-2.578-1.081-2.578-3.3593 0-2.2452 1.231-3.2929 2.578-3.2929 1.164 0 2.095.7484 2.312 1.8127zm1.108 3.5922c0 1.6464 1.397 2.5777 3.077 2.5777 1.579 0 2.511-.5321 3.06-1.4468.016.5322.066.898.116 1.2306h1.53c-.166-.8481-.249-1.8792-.233-3.3759l.017-2.0622c.016-2.5112-1.098-3.692-3.559-3.692-1.746 0-3.443 1.081-3.592 3.0101h1.563c.066-1.0976.798-1.7794 2.045-1.7794 1.115 0 2.029.5488 2.029 2.1786v.2162c-3.675.4157-6.053 1.0311-6.053 3.1431zm6.17-1.9457v.5654c0 2.1121-1.347 2.7607-2.761 2.7607-1.081 0-1.729-.5655-1.729-1.4136 0-1.2307 1.746-1.6298 4.49-1.9125zm3.918-6.885v2.2451h-1.414v1.214h1.414v5.488c0 1.8626.399 2.2451 2.112 2.2451h1.098v-1.2639h-.765c-.865 0-.932-.2328-.932-1.1641v-5.3051h1.697v-1.214h-1.697v-2.2451zm4.443 8.8307c0 1.6464 1.397 2.5777 3.077 2.5777 1.58 0 2.511-.5321 3.06-1.4468.017.5322.067.898.116 1.2306h1.53c-.166-.8481-.249-1.8792-.232-3.3759l.016-2.0622c.017-2.5112-1.097-3.692-3.559-3.692-1.746 0-3.442 1.081-3.592 3.0101h1.563c.067-1.0976.799-1.7794 2.046-1.7794 1.114 0 2.029.5488 2.029 2.1786v.2162c-3.675.4157-6.054 1.0311-6.054 3.1431zm6.17-1.9457v.5654c0 2.1121-1.347 2.7607-2.76 2.7607-1.081 0-1.73-.5655-1.73-1.4136 0-1.2307 1.746-1.6298 4.49-1.9125z"/><path d="m132.58 111.44v-3.2061h14.215v3.2061h-1.661q-.57942.0773-1.0043.19314-.38628.11589-.61805.30903-.23176.19314-.34765.54079-.11588.34765-.11588.84981v15.683q0 .54079.11588.92707.11589.34766.34765.5408.23177.23176.61805.34765.42491.0772 1.0043.0772l1.661-.0772v3.1675h-14.215v-3.1675h2.0087q.0772.0386.15451.0386.0773 0 .11588 0 .46354 0 .81119-.0773.34765-.11588.54079-.30902.23177-.19314.34765-.5408.11589-.34765.11589-.84981v-15.837q0-.42491-.11589-.77256-.11588-.34765-.34765-.54079t-.65667-.30903q-.38628-.11588-.9657-.11588l-2.0087-.0773zm-5.0875-3.7473-.904 1.6559c-3.179-2.1427-7.004-2.0841-9.148-2.0513-.237.004-.453.007-.646.007-1.938 0-8.993 1.3839-9.226 6.876-.228 5.3609 1.816 7.4684 5.181 8.6338 1.892.6562 4.054 1.1708 6.039 1.6435 1.541.3667 2.975.7081 4.095 1.0709 2.564.8255 2.618 3.6517.457 4.9239-2.166 1.2771-4.842.8886-7.857-.2816-3.016-1.1606-4.098-5.7543-4.098-5.7543h-3.531v10.299h3.186l1.083-1.9909s2.68 2.3794 8.769 2.3794c9.227 0 11.159-5.6474 11.159-8.6921s-1.884-5.4289-3.986-6.5846c-2.108-1.1703-5.58-2.1657-7.231-2.4425s-3.987-.8838-5.409-1.5976c-1.423-.72839-1.307-4.55 2.447-4.6665 3.758-.10683 4.555.28164 6.609 1.6122 2.044 1.3305 2.554 4.55 2.554 4.55h3.647v-9.5904zm-68.244 6.47h-.0098l-3.3068 9.0806h6.0262zm-12.3 16.85c.4274 0 .7916-.0971 1.1023-.2962h-.0048c.3108-.2088.5341-.4953.6701-1.146l8.1191-21.648h8.2647l7.2256 21.648c.1748.8061.3642 1.1218.5633 1.248.204.1311.607.1942 1.2043.1942h1.3645v2.9864h-14.519v-2.9864h1.3063c.7186 0 1.1994-.0874 1.447-.2622.2525-.1748.3108-.471.1797-.8886l-1.0052-3.6468h-7.9588l-1.1315 3.6468c-.1553.4176-.1165.7138.1117.8886.2283.1748.709.2622 1.4228.2622h1.3063v2.9864h-11.091v-2.9864zm37.602-.26c-.2719-.1748-.4079-.471-.4079-.8886l-.0097-.005v-13.83l11.761 17.967h7.3952v-21.643c0-.40789.136-.70896.408-.88377.272-.16996.748-.26222 1.428-.26222h1.219v-2.9718h-11.101v2.9767h1.2237c.675 0 1.1509.0874 1.4228.26221.2768.17482.4079.47588.4079.88378v12.956l-10.552-17.078h-11.654v2.9767h1.2237c.6799 0 1.1509.0874 1.4228.26221.2719.17482.4079.47588.4079.88378v17.506c0 .4176-.136.7138-.4079.8886s-.7429.2622-1.4228.2622h-1.2237v2.9864h11.106v-2.9864h-1.2237c-.6798 0-1.1557-.0874-1.4228-.2622zm76.352-16.59h.005l2.632 9.0806h-5.847zm-10.853 16.554c-.296.1991-.655.2962-1.063.2962h-1.384v2.9864h10.746v-2.9864h-1.263c-.694 0-1.155-.0874-1.374-.2622-.228-.1748-.267-.471-.116-.8886l1.107-3.6468h7.716l.976 3.6468c.126.4176.073.7138-.175.8886-.243.1748-.709.2622-1.403.2622h-1.268v2.9864h14.073v-2.9864h-1.316c-.578 0-.972-.0631-1.166-.1942-.194-.1262-.383-.4419-.548-1.248l-7.008-21.648h-8.002l-7.881 21.648c-.126.6507-.345.9372-.646 1.146z" fill="#aaa" stroke-width=".999"/></g><g id="logo" transform="matrix(.089692 0 0 .089692 1.1965 107.13)" fill="none" fill-rule="evenodd"><path id="Shape" d="m453 439h-2v-40h2c6.627 0 12 5.373 12 12v16c0 6.627-5.373 12-12 12zm0-90h-2v-40h2c6.627 0 12 5.373 12 12v16c0 6.627-5.373 12-12 12zm0-90h-2v-40h2c6.627 0 12 5.373 12 12v16c0 6.627-5.373 12-12 12zm0-90h-2v-40h2c6.627 0 12 5.373 12 12v16c0 6.627-5.373 12-12 12zm0-90h-2v-40h2c6.627 0 12 5.373 12 12v16c0 6.627-5.373 12-12 12zm-27 385h-20c0-24.853 20.147-45 45-45v20c-13.807 0-25 11.193-25 25zm-65-25c-13.807 0-25 11.193-25 25h-20c0-24.853 20.147-45 45-45s45 20.147 45 45h-20c0-13.807-11.193-25-25-25zm-90 0c-13.807 0-25 11.193-25 25v2c0 6.627-5.373 12-12 12h-16c-6.627 0-12-5.373-12-12v-2c0-13.807-11.193-25-25-25s-25 11.193-25 25v2c0 6.627-5.373 12-12 12h-16c-6.627 0-12-5.373-12-12v-2c0-13.807-11.193-25-25-25h-2c-6.627 0-12-5.373-12-12v-16c0-6.627 5.373-12 12-12h2c13.807 0 25-11.193 25-25s-11.193-25-25-25c-5.523 0-10-4.477-10-10s4.477-10 10-10c24.853 0 45 20.147 45 45s-20.147 45-45 45c24.853 0 45 20.147 45 45 0-24.853 20.147-45 45-45s45 20.147 45 45c0-24.853 20.147-45 45-45s45 20.147 45 45h-20c0-13.807-11.193-25-25-25zm135-65c0-24.853 20.147-45 45-45v20c-13.807 0-25 11.193-25 25s11.193 25 25 25v20c-24.853 0-45-20.147-45-45zm0-90c0-24.853 20.147-45 45-45v20c-13.807 0-25 11.193-25 25s11.193 25 25 25v20c-24.853 0-45-20.147-45-45zm0-90c0-24.853 20.147-45 45-45v20c-13.807 0-25 11.193-25 25s11.193 25 25 25v20c-24.853 0-45-20.147-45-45zm0-90c0-24.853 20.147-45 45-45v20c-13.807 0-25 11.193-25 25s11.193 25 25 25v20c-24.853 0-45-20.147-45-45zm0-90h20c0 13.807 11.193 25 25 25v20c-24.853 0-45-20.147-45-45zm-45 45c-24.853 0-45-20.147-45-45 0 24.853-20.147 45-45 45s-45-20.147-45-45c0 24.853-20.147 45-45 45s-45-20.147-45-45c0 24.853-20.147 45-45 45 24.853 0 45 20.147 45 45s-20.147 45-45 45c-5.523 0-10-4.477-10-10s4.477-10 10-10c13.807 0 25-11.193 25-25s-11.193-25-25-25h-2c-6.627 0-12-5.373-12-12v-16c0-6.627 5.373-12 12-12h2c13.807 0 25-11.193 25-25v-2c0-6.627 5.373-12 12-12h16c6.627 0 12 5.373 12 12v2c0 13.807 11.193 25 25 25s25-11.193 25-25v-2c0-6.627 5.373-12 12-12h16c6.627 0 12 5.373 12 12v2c0 13.807 11.193 25 25 25s25-11.193 25-25v-2c0-6.627 5.373-12 12-12h16c6.627 0 12 5.373 12 12v2c0 13.807 11.193 25 25 25s25-11.193 25-25h20c0 24.853-20.147 45-45 45zm25-47c0-6.627 5.373-12 12-12h16c6.627 0 12 5.373 12 12v2h-40zm-50 454c0 6.627-5.373 12-12 12h-16c-6.627 0-12-5.373-12-12v-2h40zm90 0c0 6.627-5.373 12-12 12h-16c-6.627 0-12-5.373-12-12v-2h40z" fill="#aaa"/><path d="m270 149c5.523 0 10 4.477 10 10v62.697c3.028 1.755 5.548 4.275 7.303 7.303h32.697c5.523 0 10 4.477 10 10s-4.477 10-10 10h-32.697c-3.46 5.972-9.905 10-17.303 10-11.046 0-20-8.954-20-20 0-7.398 4.028-13.843 10-17.303v-62.697c0-5.523 4.477-10 10-10zm86 240h-171c-11.046 0-20-8.954-20-20v-30c0-5.523 4.477-10 10-10s10 4.477 10 10v20c0 5.523 4.477 10 10 10h151c5.523 0 10-4.477 10-10v-240c0-5.523-4.477-10-10-10h-151c-5.523 0-10 4.477-10 10v20c0 5.523-4.477 10-10 10s-10-4.477-10-10v-30c0-11.046 8.954-20 20-20h171c11.046 0 20 8.954 20 20v260c0 11.046-8.954 20-20 20z" fill="#aaa"/><path d="m8.687 195.29c25.309 0 30.254 24 55.732 24 22.877 0 31.277-24.572 53.456-24.572 26.832 0 31.406 24.572 57.438 24.572" stroke="#aaa" stroke-width="20"/><path d="m8.687 260.29c28.313.714 30.254 24 55.732 24 22.877 0 31.277-24.572 53.456-24.572 26.832 0 31.406 24.572 57.438 24.572" stroke="#aaa" stroke-width="20"/><g fill="#aaa"><circle cx="174" cy="284" r="10"/><circle cx="174" cy="219" r="10"/><circle cx="10.5" cy="260.5" r="10.5"/><circle cx="10.5" cy="195.5" r="10.5"/></g></g></svg>
