<?xml version="1.0" encoding="UTF-8"?>
<svg id="vector" width="50mm" height="50mm" version="1.1" viewBox="0 0 50 50" xmlns="http://www.w3.org/2000/svg">
 <path id="path" d="m5 15.272v27.66h4.144c2.2889.0092 4.467-.95985 5.9898-2.6673 1.1352-1.2644 1.8736-2.8334 2.1135-4.5131h3.1103c4.5224 0 8.1864-3.664 8.2049-8.1864h.02769c4.5224 0 8.1957-3.664 8.2049-8.1864 4.5316-.0092 8.1957-3.6733 8.2049-8.2049v-4.0978l-31.795-.0092292c-4.5316 0-8.1957 3.6733-8.2049 8.2049zm31.795 0h-19.483v4.107h15.385c-.0092 2.2612-1.8366 4.0794-4.0978 4.0886l-13.346-.0092v4.0978h9.2017c-.0092 2.2612-1.8459 4.0794-4.0978 4.0886h-7.3927l.24919 2.2796c.1569 1.3013-.25842 2.6119-1.126 3.5902-.76604.83987-1.8551 1.3198-2.9903 1.3198l.00923-23.562c0-2.2612 1.8366-4.0978 4.0978-4.0978h27.688c0 2.2704-1.8366 4.0978-4.0978 4.0978z" fill="#aaa" fill-rule="evenodd" stroke-width="1.1537"/>
</svg>
